<svg width="291" height="96" viewBox="0 0 291 96" fill="none" xmlns="http://www.w3.org/2000/svg">
<circle cx="48" cy="48" r="48" fill="url(#paint0_radial_13770_5776)"/>
<path d="M240.937 84.321C240.937 85.985 240.601 87.473 239.929 88.785C239.289 90.097 238.201 91.121 236.665 91.857C235.129 92.593 233.033 92.961 230.377 92.961C228.553 92.961 226.889 92.849 225.385 92.625C223.913 92.433 222.393 92.049 220.825 91.473V84.129C222.553 84.897 224.249 85.457 225.913 85.809C227.609 86.129 228.857 86.289 229.657 86.289C230.457 86.289 231.033 86.177 231.385 85.953C231.769 85.729 231.961 85.393 231.961 84.945C231.961 84.561 231.785 84.225 231.433 83.937C231.081 83.649 230.521 83.329 229.753 82.977C228.985 82.625 227.945 82.145 226.633 81.537C225.353 80.929 224.281 80.273 223.417 79.569C222.553 78.833 221.897 77.969 221.449 76.977C221.001 75.953 220.777 74.721 220.777 73.281C220.777 70.689 221.753 68.737 223.705 67.425C225.657 66.113 228.217 65.457 231.385 65.457C233.081 65.457 234.665 65.649 236.137 66.033C237.641 66.417 239.193 66.977 240.793 67.713L238.297 73.617C237.465 73.201 236.585 72.849 235.657 72.561C234.761 72.273 233.929 72.049 233.161 71.889C232.425 71.729 231.865 71.649 231.481 71.649C230.969 71.649 230.569 71.745 230.281 71.937C229.993 72.129 229.849 72.401 229.849 72.753C229.849 73.073 229.977 73.361 230.233 73.617C230.489 73.873 230.969 74.177 231.673 74.529C232.409 74.849 233.449 75.297 234.793 75.873C236.265 76.481 237.449 77.153 238.345 77.889C239.241 78.593 239.897 79.457 240.313 80.481C240.729 81.473 240.937 82.753 240.937 84.321Z" fill="#32333E"/>
<path d="M202.041 64.256C202.041 65.184 202.009 66.08 201.945 66.944C201.881 67.808 201.801 68.608 201.705 69.344H202.041C202.681 68.256 203.497 67.344 204.489 66.608C205.481 65.84 206.809 65.456 208.473 65.456C210.969 65.456 213.017 66.624 214.617 68.96C216.249 71.296 217.065 74.688 217.065 79.136C217.065 82.144 216.681 84.688 215.913 86.768C215.177 88.816 214.137 90.368 212.793 91.424C211.449 92.448 209.897 92.96 208.137 92.96C206.409 92.96 205.113 92.64 204.249 92C203.417 91.328 202.681 90.624 202.041 89.888H201.417L199.977 92.48H192.345V56H202.041V64.256ZM204.729 72.656C204.153 72.656 203.657 72.864 203.241 73.28C202.857 73.664 202.553 74.256 202.329 75.056C202.137 75.856 202.041 76.896 202.041 78.176V79.472C202.041 81.52 202.249 83.056 202.665 84.08C203.081 85.072 203.801 85.568 204.825 85.568C205.657 85.568 206.265 85.024 206.649 83.936C207.033 82.816 207.225 81.184 207.225 79.04C207.225 76.928 207.033 75.344 206.649 74.288C206.297 73.2 205.657 72.656 204.729 72.656Z" fill="#32333E"/>
<path d="M186.574 65.457C187.118 65.457 187.662 65.489 188.206 65.553C188.782 65.617 189.182 65.681 189.406 65.745L188.494 74.385C188.174 74.321 187.774 74.257 187.294 74.193C186.846 74.129 186.094 74.097 185.038 74.097C184.686 74.097 184.254 74.161 183.742 74.289C183.23 74.385 182.718 74.609 182.206 74.961C181.726 75.313 181.31 75.841 180.958 76.545C180.638 77.249 180.478 78.209 180.478 79.425V92.481H170.782V65.937H177.934L179.47 70.161H179.95C180.398 69.297 180.974 68.513 181.678 67.809C182.382 67.073 183.15 66.497 183.982 66.081C184.846 65.665 185.71 65.457 186.574 65.457Z" fill="#32333E"/>
<path d="M154.091 65.457C156.587 65.457 158.747 65.905 160.571 66.801C162.395 67.697 163.787 69.041 164.747 70.833C165.739 72.625 166.235 74.881 166.235 77.601V81.681H151.163C151.227 83.057 151.659 84.193 152.459 85.089C153.291 85.985 154.539 86.433 156.203 86.433C157.771 86.433 159.195 86.273 160.475 85.953C161.787 85.633 163.131 85.121 164.507 84.417V90.993C163.323 91.665 161.979 92.161 160.475 92.481C159.003 92.801 157.099 92.961 154.763 92.961C152.235 92.961 149.963 92.497 147.947 91.569C145.931 90.609 144.331 89.121 143.147 87.105C141.963 85.089 141.371 82.513 141.371 79.377C141.371 76.177 141.899 73.553 142.955 71.505C144.043 69.457 145.531 67.937 147.419 66.945C149.339 65.953 151.563 65.457 154.091 65.457ZM154.523 71.697C153.659 71.697 152.939 72.033 152.363 72.705C151.787 73.377 151.451 74.449 151.355 75.921H157.595C157.595 75.121 157.467 74.417 157.211 73.809C156.955 73.169 156.603 72.657 156.155 72.273C155.707 71.889 155.163 71.697 154.523 71.697Z" fill="#32333E"/>
<path d="M140.448 58.209L130.08 92.481H118.272L108 58.209H119.376L122.88 75.585C123.008 76.257 123.168 77.105 123.36 78.129C123.584 79.153 123.776 80.177 123.936 81.201C124.128 82.193 124.224 83.009 124.224 83.649C124.288 83.009 124.384 82.193 124.512 81.201C124.64 80.209 124.784 79.217 124.944 78.225C125.104 77.201 125.248 76.353 125.376 75.681L129.12 58.209H140.448Z" fill="#32333E"/>
<path d="M274.556 8.70353C274.556 10.6555 274.508 12.3035 274.412 13.6475C274.316 14.9915 274.236 16.0155 274.172 16.7195H274.604C275.148 15.7915 275.74 15.0555 276.38 14.5115C277.052 13.9675 277.788 13.5835 278.588 13.3595C279.42 13.1035 280.316 12.9755 281.276 12.9755C282.844 12.9755 284.3 13.3115 285.644 13.9835C287.02 14.6555 288.108 15.7115 288.908 17.1515C289.74 18.5595 290.156 20.4155 290.156 22.7195V39.9995H280.364V25.5035C280.364 23.7435 280.172 22.4155 279.788 21.5195C279.404 20.6235 278.796 20.1755 277.964 20.1755C277.1 20.1755 276.412 20.4955 275.9 21.1355C275.42 21.7755 275.068 22.7035 274.844 23.9195C274.652 25.1035 274.556 26.5755 274.556 28.3355V39.9995H264.86V3.51953H274.556V8.70353Z" fill="#32333E"/>
<path d="M260.297 31.8406C260.297 33.5046 259.961 34.9926 259.289 36.3046C258.649 37.6166 257.561 38.6406 256.025 39.3766C254.489 40.1126 252.393 40.4806 249.737 40.4806C247.913 40.4806 246.249 40.3686 244.745 40.1446C243.273 39.9526 241.753 39.5686 240.185 38.9926V31.6486C241.913 32.4166 243.609 32.9766 245.273 33.3286C246.969 33.6486 248.217 33.8086 249.017 33.8086C249.817 33.8086 250.393 33.6966 250.745 33.4726C251.129 33.2486 251.321 32.9126 251.321 32.4646C251.321 32.0806 251.145 31.7446 250.793 31.4566C250.441 31.1686 249.881 30.8486 249.113 30.4966C248.345 30.1446 247.305 29.6646 245.993 29.0566C244.713 28.4486 243.641 27.7926 242.777 27.0886C241.913 26.3526 241.257 25.4886 240.809 24.4966C240.361 23.4726 240.137 22.2406 240.137 20.8006C240.137 18.2086 241.113 16.2566 243.065 14.9446C245.017 13.6326 247.577 12.9766 250.745 12.9766C252.441 12.9766 254.025 13.1686 255.497 13.5526C257.001 13.9366 258.553 14.4966 260.153 15.2326L257.657 21.1366C256.825 20.7206 255.945 20.3686 255.017 20.0806C254.121 19.7926 253.289 19.5686 252.521 19.4086C251.785 19.2486 251.225 19.1686 250.841 19.1686C250.329 19.1686 249.929 19.2646 249.641 19.4566C249.353 19.6486 249.209 19.9206 249.209 20.2726C249.209 20.5926 249.337 20.8806 249.593 21.1366C249.849 21.3926 250.329 21.6966 251.033 22.0486C251.769 22.3686 252.809 22.8166 254.153 23.3926C255.625 24.0006 256.809 24.6726 257.705 25.4086C258.601 26.1126 259.257 26.9766 259.673 28.0006C260.089 28.9926 260.297 30.2726 260.297 31.8406Z" fill="#32333E"/>
<path d="M235.557 13.456V40H225.861V13.456H235.557ZM230.757 2.75195C232.133 2.75195 233.317 3.02395 234.309 3.56795C235.333 4.11195 235.845 5.19995 235.845 6.83195C235.845 8.39995 235.333 9.47195 234.309 10.048C233.317 10.592 232.133 10.864 230.757 10.864C229.349 10.864 228.149 10.592 227.157 10.048C226.165 9.47195 225.669 8.39995 225.669 6.83195C225.669 5.19995 226.165 4.11195 227.157 3.56795C228.149 3.02395 229.349 2.75195 230.757 2.75195Z" fill="#32333E"/>
<path d="M211.763 12.9766C214.323 12.9766 216.419 13.7446 218.051 15.2806C219.715 16.8166 220.547 19.2966 220.547 22.7206V40.0006H210.851V25.5046C210.851 23.7446 210.659 22.4166 210.275 21.5206C209.891 20.6246 209.251 20.1766 208.355 20.1766C206.979 20.1766 206.067 20.8806 205.619 22.2886C205.171 23.6966 204.947 25.7286 204.947 28.3846V40.0006H195.251V13.4566H202.499L203.843 16.9606H204.131C204.675 16.1286 205.299 15.4246 206.003 14.8486C206.707 14.2406 207.523 13.7766 208.451 13.4566C209.411 13.1366 210.515 12.9766 211.763 12.9766Z" fill="#32333E"/>
<path d="M180.001 12.9766C183.105 12.9766 185.537 13.8086 187.297 15.4726C189.089 17.1366 189.985 19.5046 189.985 22.5766V40.0006H183.313L181.441 36.4966H181.249C180.545 37.4246 179.825 38.1926 179.089 38.8006C178.353 39.3766 177.505 39.7926 176.545 40.0486C175.585 40.3366 174.417 40.4806 173.041 40.4806C171.601 40.4806 170.305 40.1766 169.153 39.5686C168.001 38.9286 167.089 37.9846 166.417 36.7366C165.777 35.4566 165.457 33.8406 165.457 31.8886C165.457 29.0406 166.385 26.9286 168.241 25.5526C170.097 24.1446 172.737 23.3766 176.161 23.2486L180.241 23.1046V22.7206C180.241 21.5366 180.001 20.7046 179.521 20.2246C179.073 19.7126 178.449 19.4566 177.649 19.4566C176.785 19.4566 175.729 19.6486 174.481 20.0326C173.233 20.3846 171.985 20.8486 170.737 21.4246L168.097 15.3766C169.633 14.5766 171.361 13.9846 173.281 13.6006C175.233 13.1846 177.473 12.9766 180.001 12.9766ZM178.705 28.2406C177.457 28.3046 176.561 28.6086 176.017 29.1526C175.505 29.6646 175.249 30.4006 175.249 31.3606C175.249 32.2566 175.441 32.9286 175.825 33.3766C176.209 33.7926 176.705 34.0006 177.313 34.0006C178.113 34.0006 178.817 33.6486 179.425 32.9446C180.033 32.2406 180.337 31.3286 180.337 30.2086V28.1446L178.705 28.2406Z" fill="#32333E"/>
<path d="M153.488 12.9766C156.24 12.9766 158.352 14.1606 159.824 16.5286C161.328 18.8646 162.08 22.2406 162.08 26.6566C162.08 29.6646 161.68 32.2086 160.88 34.2886C160.112 36.3366 159.056 37.8886 157.712 38.9446C156.368 39.9686 154.848 40.4806 153.152 40.4806C152 40.4806 151.024 40.3206 150.224 40.0006C149.424 39.6806 148.768 39.2966 148.256 38.8486C147.776 38.3686 147.376 37.8886 147.056 37.4086H146.816C146.88 38.0166 146.928 38.6726 146.96 39.3766C147.024 40.0806 147.056 40.8966 147.056 41.8246V51.5206H137.36V13.4566H145.232L146.624 16.8166H147.056C147.44 16.1126 147.904 15.4726 148.448 14.8966C149.024 14.3206 149.712 13.8566 150.512 13.5046C151.344 13.1526 152.336 12.9766 153.488 12.9766ZM149.6 20.1766C148.96 20.1766 148.448 20.4006 148.064 20.8486C147.68 21.2646 147.408 21.8886 147.248 22.7206C147.12 23.5526 147.056 24.6086 147.056 25.8886V26.6086C147.056 28.0166 147.12 29.2006 147.248 30.1606C147.408 31.1206 147.68 31.8566 148.064 32.3686C148.448 32.8486 148.976 33.0886 149.648 33.0886C150.192 33.0886 150.656 32.8806 151.04 32.4646C151.424 32.0166 151.712 31.3126 151.904 30.3526C152.128 29.3926 152.24 28.1286 152.24 26.5606C152.24 24.2246 152 22.5766 151.52 21.6166C151.04 20.6566 150.4 20.1766 149.6 20.1766Z" fill="#32333E"/>
<path d="M133.344 29.584C133.344 31.44 132.912 33.2 132.048 34.864C131.216 36.528 129.84 37.888 127.92 38.944C126 39.968 123.456 40.48 120.288 40.48C118.624 40.48 117.216 40.4001 116.064 40.2401C114.944 40.1121 113.92 39.8881 112.992 39.5681C112.064 39.2481 111.04 38.832 109.92 38.32V30.064C111.776 30.992 113.632 31.712 115.488 32.224C117.344 32.704 118.944 32.944 120.288 32.944C120.992 32.944 121.584 32.832 122.064 32.608C122.544 32.384 122.896 32.08 123.12 31.696C123.376 31.312 123.504 30.8801 123.504 30.4001C123.504 29.7921 123.36 29.28 123.072 28.864C122.784 28.448 122.24 28.0161 121.44 27.5681C120.64 27.1201 119.472 26.5761 117.936 25.9361C116.496 25.3281 115.264 24.704 114.24 24.064C113.248 23.424 112.448 22.704 111.84 21.904C111.232 21.104 110.784 20.176 110.496 19.12C110.208 18.032 110.064 16.752 110.064 15.28C110.064 13.072 110.608 11.232 111.696 9.76005C112.816 8.25605 114.336 7.13605 116.256 6.40005C118.176 5.63205 120.384 5.24805 122.88 5.24805C125.248 5.24805 127.312 5.50405 129.072 6.01605C130.864 6.49605 132.32 7.05605 133.44 7.69605L130.512 14.848C129.232 14.176 127.872 13.648 126.432 13.264C124.992 12.848 123.712 12.64 122.592 12.64C121.92 12.64 121.376 12.736 120.96 12.928C120.544 13.12 120.24 13.392 120.048 13.744C119.856 14.064 119.76 14.432 119.76 14.848C119.76 15.392 119.936 15.872 120.288 16.288C120.672 16.704 121.328 17.168 122.256 17.68C123.216 18.16 124.544 18.816 126.24 19.648C127.776 20.352 129.072 21.1361 130.128 22C131.184 22.864 131.984 23.904 132.528 25.12C133.072 26.304 133.344 27.792 133.344 29.584Z" fill="#32333E"/>
<defs>
<radialGradient id="paint0_radial_13770_5776" cx="0" cy="0" r="1" gradientUnits="userSpaceOnUse" gradientTransform="translate(60 41.1429) rotate(102.339) scale(56.1543)">
<stop offset="0.103251" stop-color="#FFE500"/>
<stop offset="1" stop-color="#FF5151"/>
</radialGradient>
</defs>
</svg>
